<?xml version="1.0" encoding="UTF-8" standalone="no"?>
<!-- Created with Inkscape (http://www.inkscape.org/) -->

<svg
   xmlns:dc="http://purl.org/dc/elements/1.1/"
   xmlns:cc="http://creativecommons.org/ns#"
   xmlns:rdf="http://www.w3.org/1999/02/22-rdf-syntax-ns#"
   xmlns:svg="http://www.w3.org/2000/svg"
   xmlns="http://www.w3.org/2000/svg"
   version="1.1"
   width="33"
   height="33"
   viewBox="0 0 33 33"
   id="svg2">
  <metadata
     id="metadata10">
    <rdf:RDF>
      <cc:Work
         rdf:about="">
        <dc:format>image/svg+xml</dc:format>
        <dc:type
           rdf:resource="http://purl.org/dc/dcmitype/StillImage" />
        <dc:title></dc:title>
      </cc:Work>
    </rdf:RDF>
  </metadata>
  <defs
     id="defs8" />
  <path
     d="m 32,3.4179999 v 5.0255229 c 0,0.1705 -0.104273,0.3064773 -0.231091,0.3064773 H 1.2310909 C 1.1077955,8.7500001 1,8.6112046 1,8.4435228 V 3.4179999 C 1,3.2531364 1.1077955,3.1136364 1.2310909,3.1136364 H 31.768909 c 0.126818,0 0.231091,0.1395 0.231091,0.3043635 z m 0,21.1363641 v 5.025523 c 0,0.1705 -0.104273,0.306477 -0.231091,0.306477 H 1.2310909 C 1.1077955,29.886364 1,29.747569 1,29.579887 V 24.554364 C 1,24.389501 1.1077955,24.250001 1.2310909,24.250001 H 31.768909 c 0.126818,0 0.231091,0.1395 0.231091,0.304363 z m 0,-10.568182 v 5.025523 c 0,0.1705 -0.104273,0.306477 -0.231091,0.306477 H 1.2310909 C 1.1077955,19.318182 1,19.179387 1,19.011705 V 13.986182 C 1,13.821319 1.1077955,13.681819 1.2310909,13.681819 H 31.768909 c 0.126818,0 0.231091,0.1395 0.231091,0.304363 z"
     id="path4"
     style="fill:#969696" />
</svg>
