<?xml version="1.0" encoding="UTF-8" standalone="no"?>
<!-- Created with Inkscape (http://www.inkscape.org/) -->

<svg
   xmlns:dc="http://purl.org/dc/elements/1.1/"
   xmlns:cc="http://creativecommons.org/ns#"
   xmlns:rdf="http://www.w3.org/1999/02/22-rdf-syntax-ns#"
   xmlns:svg="http://www.w3.org/2000/svg"
   xmlns="http://www.w3.org/2000/svg"
   version="1.1"
   width="157"
   height="69"
   viewBox="0 0 48.329372 21.279531"
   id="svg3055"
   xml:space="preserve"
   style="fill-rule:evenodd"><metadata
     id="metadata3085"><rdf:RDF><cc:Work
         rdf:about=""><dc:format>image/svg+xml</dc:format><dc:type
           rdf:resource="http://purl.org/dc/dcmitype/StillImage" /><dc:title></dc:title></cc:Work></rdf:RDF></metadata><defs
     id="defs3057" /><g
     transform="matrix(0.34645373,0,0,0.34645373,-0.04474849,0.00859549)"
     id="g3097"><path
       d="m 54.2157,27.9659 c 0,-1.08967 -0.179975,-2.11861 -0.540288,-3.08721 -0.35995,-0.968229 -0.858426,-1.81575 -1.4947,-2.54219 -0.636639,-0.726444 -1.38999,-1.30164 -2.26114,-1.72521 -0.870788,-0.423577 -1.82556,-0.635548 -2.8636,-0.635548 -1.0384,0 -1.99318,0.21197 -2.86396,0.635548 -0.870788,0.423577 -1.6245,0.99877 -2.26114,1.72521 -0.636275,0.726444 -1.13439,1.57396 -1.4947,2.54219 -0.35995,0.968592 -0.539925,1.99754 -0.539925,3.08721 0,1.0893 0.179975,2.11861 0.539925,3.08684 0.360313,0.968592 0.858426,1.81611 1.4947,2.54255 0.636639,0.726444 1.39035,1.30127 2.26114,1.72521 0.870788,0.423577 1.82556,0.635548 2.86396,0.635548 1.03804,0 1.99281,-0.21197 2.8636,-0.635548 0.871151,-0.423941 1.6245,-0.99877 2.26114,-1.72521 0.636275,-0.726444 1.13475,-1.57396 1.4947,-2.54255 C 54.035725,30.084511 54.2157,29.0552 54.2157,27.9659 z m 3.06466,0 c 0,1.33145 -0.271962,2.59855 -0.816613,3.80056 -0.543924,1.20165 -1.28091,2.26114 -2.2106,3.17774 -0.929325,0.9166 -2.0139,1.64741 -3.25336,2.19206 -1.2391,0.544651 -2.55383,0.816977 -3.94381,0.816977 -1.38999,0 -2.70471,-0.272326 -3.94418,-0.816977 -1.23946,-0.544651 -2.32368,-1.27982 -3.25336,-2.20515 -0.929325,-0.925326 -1.66631,-1.98881 -2.2106,-3.19083 -0.544288,-1.20201 -0.816613,-2.46002 -0.816613,-3.77438 0,-1.31436 0.272326,-2.57273 0.816613,-3.77475 0.544288,-1.20165 1.28128,-2.2655 2.2106,-3.19083 0.929689,-0.924962 2.0139,-1.66013 3.25336,-2.20478 1.23946,-0.545015 2.55419,-0.817341 3.94418,-0.817341 1.38999,0 2.70471,0.272326 3.94381,0.817341 1.23946,0.544651 2.32404,1.27982 3.25336,2.20478 0.929689,0.925326 1.66668,1.98918 2.2106,3.19083 0.544651,1.20201 0.816613,2.46038 0.816613,3.77475 z m 12.159,-7.88617 0.02509,0.103622 -0.100713,-0.05199 c -0.435212,-0.449392 -0.937687,-0.765348 -1.50706,-0.946777 -0.569375,-0.181793 -1.08021,-0.272326 -1.53251,-0.272326 -1.18893,0 -2.09753,0.389037 -2.7258,1.16747 -0.627912,0.778073 -0.883513,2.07498 -0.766075,3.89109 l 1.7583,0 0,2.62 -0.954412,-1.03767 -0.828975,0 0,10.2211 0.87915,1.63432 -4.39611,0 0.87915,-1.63432 0,-10.2211 -0.828975,0 -0.954776,1.03767 0,-2.62 1.80884,0 c -0.0669,-2.05826 0.322501,-3.61877 1.1682,-4.68226 0.8457,-1.06385 2.24005,-1.59578 4.18269,-1.59578 0.469026,0 0.916963,0.06908 1.34418,0.207607 0.427213,0.138526 0.81225,0.319955 1.15548,0.545015 0.343225,0.224696 0.636639,0.479933 0.879514,0.764984 0.242512,0.285415 0.414124,0.575193 0.514837,0.869333 z m 7.2099,0 0.02509,0.103622 -0.10035,-0.05199 c -0.435576,-0.449392 -0.938051,-0.765348 -1.50743,-0.946777 -0.569375,-0.181793 -1.08021,-0.272326 -1.53215,-0.272326 -1.18929,0 -2.09789,0.389037 -2.72617,1.16747 -0.627912,0.778073 -0.88315,2.07498 -0.766075,3.89109 l 1.75866,0 0,2.62 -0.954776,-1.03767 -0.828975,0 0,10.2211 0.87915,1.63432 -4.39611,0 0.87915,-1.63432 0,-10.2211 -0.828975,0 -0.954412,1.03767 0,-2.62 1.80848,0 c -0.0669,-2.05826 0.322501,-3.61877 1.1682,-4.68226 0.8457,-1.06385 2.24005,-1.59578 4.18269,-1.59578 0.469026,0 0.917327,0.06908 1.34418,0.207607 0.427213,0.138526 0.81225,0.319955 1.15548,0.545015 0.343588,0.224696 0.636639,0.479933 0.879514,0.764984 0.242875,0.285415 0.414488,0.575193 0.514837,0.869333 z m 8.29048,8.61225 c -0.08399,-0.587918 -0.255601,-1.09367 -0.515201,-1.51724 -0.2596,-0.423941 -0.573738,-0.778437 -0.942051,-1.06385 -0.368312,-0.285415 -0.774801,-0.497022 -1.21838,-0.635548 -0.443938,-0.138163 -0.891876,-0.207244 -1.34418,-0.207244 -0.485387,0 -0.962775,0.07744 -1.4318,0.233058 -0.469026,0.155978 -0.891876,0.376311 -1.26855,0.661726 -0.377038,0.285415 -0.703538,0.644274 -0.979863,1.07658 -0.276325,0.432303 -0.464663,0.9166 -0.565376,1.45252 l 8.26539,0 z m 2.71308,1.71249 -11.1541,0 c -0.03345,0.726444 0.04181,1.41798 0.22615,2.07535 0.183974,0.656999 0.464663,1.23655 0.841337,1.73794 0.377038,0.501748 0.858426,0.907873 1.44453,1.2191 0.5861,0.311593 1.27291,0.484296 2.06008,0.5192 0.502475,0.03454 1.05513,0.0044 1.65795,-0.0909 0.603189,-0.09526 1.1722,-0.281052 1.70813,-0.55774 0.536289,-0.276689 1.00931,-0.666089 1.41944,-1.16747 0.410488,-0.501748 0.682814,-1.1413 0.816613,-1.91973 l 0.778801,0.622822 c -0.100713,0.674088 -0.322501,1.31836 -0.665725,1.93246 -0.343225,0.614096 -0.791526,1.15438 -1.34418,1.62123 -0.55265,0.467208 -1.19729,0.843155 -1.93428,1.12857 -0.736988,0.285415 -1.54924,0.42794 -2.43675,0.42794 -1.23946,0 -2.32804,-0.198518 -3.26573,-0.596281 -0.938051,-0.398126 -1.72921,-0.921326 -2.37421,-1.5696 -0.644637,-0.648637 -1.13039,-1.39653 -1.45689,-2.24405 -0.3265,-0.847518 -0.48975,-1.71213 -0.48975,-2.59418 0,-0.985681 0.16325,-1.93282 0.48975,-2.8407 0.3265,-0.907873 0.803888,-1.70776 1.4318,-2.39967 0.627912,-0.69154 1.40708,-1.24528 2.3364,-1.66013 0.929689,-0.414851 1.98881,-0.622459 3.17774,-0.622459 1.27291,0 2.32804,0.21597 3.16538,0.648273 0.837338,0.432667 1.51143,0.986044 2.02226,1.6605 0.510838,0.674451 0.883513,1.42671 1.11803,2.25678 0.234513,0.830066 0.376675,1.63432 0.427213,2.41275 z m 15.9523,-0.83043 c 0,0.674815 -0.088,1.33181 -0.26396,1.97173 -0.17598,0.639911 -0.41013,1.24528 -0.70354,1.81575 -0.29305,0.57083 -0.63628,1.09839 -1.02967,1.58269 -0.39376,0.484296 -0.79989,0.907873 -1.21874,1.2711 l 1.30673,1.19329 -4.773151,0 c 0.451937,-0.34577 0.899875,-0.804252 1.34381,-1.37508 0.443938,-0.570466 0.832975,-1.18456 1.1682,-1.84156 0.334862,-0.657363 0.607191,-1.33181 0.816611,-2.02335 0.20906,-0.691904 0.31378,-1.34054 0.31378,-1.94591 0,-0.726081 -0.0753,-1.4009 -0.22615,-2.02335 -0.15053,-0.622459 -0.393404,-1.16311 -0.728266,-1.62123 -0.335226,-0.458482 -0.762439,-0.817341 -1.28128,-1.07694 -0.5192,-0.259237 -1.13911,-0.389037 -1.85901,-0.389037 -0.803888,0 -1.51979,0.134163 -2.14806,0.402126 -0.627912,0.268326 -1.15984,0.609733 -1.59505,1.02495 l 0,9.23508 0.87915,1.63432 -4.39648,0 0.879514,-1.63432 0,-10.3506 -1.20601,-1.45289 3.84383,0 0,1.06349 c 0.48575,-0.449756 1.08858,-0.834429 1.80848,-1.15438 0.720263,-0.319955 1.5576,-0.479933 2.51238,-0.479933 0.971501,0 1.85901,0.142889 2.6629,0.42794 0.803892,0.285415 1.494702,0.691904 2.072442,1.21947 0.57774,0.527563 1.02604,1.17584 1.34418,1.94555 0.31813,0.769711 0.47739,1.62995 0.47739,2.58109 z m 8.36538,6.77106 c -0.43521,0.535925 -0.89188,0.920963 -1.36926,1.15438 -0.47702,0.233422 -0.95005,0.350133 -1.41907,0.350133 -0.72026,0 -1.33581,-0.21197 -1.84665,-0.635548 -0.51084,-0.423577 -0.76607,-1.03331 -0.76607,-1.82884 l 0,-9.83208 -0.82898,0 -0.95478,1.03767 0,-2.62 1.83393,0 0,-3.99508 -1.20601,-1.45289 3.74348,0 0,5.44797 1.83356,0 0,2.62 -0.95441,-1.03767 -0.82897,0 0,9.28743 c 0,0.397763 0.0669,0.73917 0.20106,1.02458 0.1338,0.285415 0.32214,0.501385 0.56501,0.648637 0.24288,0.146889 0.53593,0.211607 0.87915,0.194155 0.34359,-0.01709 0.71627,-0.138163 1.11803,-0.362859 z m 4.92404,1.06349 -4.39648,0 0.87951,-1.63432 0,-15.7985 -1.20601,-1.45289 3.84383,0 0,17.2514 0.87915,1.63432 z m 5.97917,0 -4.39648,0 0.87915,-1.63432 0,-10.3506 -1.20565,-1.45289 3.84346,0 0,11.8034 0.87951,1.63432 z m -0.60319,-16.7064 c 0,0.518837 -0.16325,0.955503 -0.48975,1.31 -0.3265,0.354496 -0.73262,0.531926 -1.21838,0.531926 -0.50247,0 -0.92532,-0.17743 -1.26855,-0.531926 -0.34359,-0.354496 -0.5152,-0.791162 -0.5152,-1.31 0,-0.501385 0.17161,-0.925326 0.5152,-1.2711 0.34323,-0.346134 0.76608,-0.518837 1.26855,-0.518837 0.48575,0 0.89188,0.172703 1.21838,0.518837 0.3265,0.34577 0.48975,0.769711 0.48975,1.2711 z m 17.4848,3.26864 -1.20601,1.45289 0,11.025 c 0,1.19329 -0.1338,2.27859 -0.40176,3.25591 -0.26796,0.976955 -0.67409,1.82011 -1.21838,2.5291 -0.54429,0.709356 -1.2311,1.25837 -2.06008,1.64741 -0.82898,0.389037 -1.80448,0.583555 -2.9265,0.583555 -0.55301,0 -1.10966,-0.07781 -1.67068,-0.233422 -0.56101,-0.155615 -1.08458,-0.380311 -1.57033,-0.674451 -0.48575,-0.294141 -0.90824,-0.648637 -1.26855,-1.06349 -0.35995,-0.415215 -0.61555,-0.882059 -0.76608,-1.4009 l 0.0753,-0.02618 c 0.21778,0.311593 0.50647,0.596644 0.86678,0.856244 0.35995,0.2596 0.74099,0.479933 1.14311,0.661362 0.40177,0.181793 0.81225,0.319955 1.23074,0.415215 0.41886,0.09526 0.80389,0.142526 1.15584,0.142526 0.95442,0 1.74158,-0.190155 2.36113,-0.570466 0.61992,-0.380674 1.10966,-0.890785 1.46961,-1.5307 0.36032,-0.639911 0.61156,-1.37072 0.75372,-2.19206 0.14252,-0.82134 0.20542,-1.67322 0.1887,-2.55528 -0.48575,0.639911 -1.08458,1.07658 -1.79648,1.31 -0.7119,0.233422 -1.41071,0.350133 -2.09753,0.350133 -0.85406,0 -1.72085,-0.142526 -2.6,-0.42794 -0.87952,-0.285415 -1.67904,-0.722081 -2.3993,-1.31 -0.72026,-0.587918 -1.31036,-1.34018 -1.77103,-2.25678 -0.46066,-0.9166 -0.69081,-2.01499 -0.69081,-3.29481 0,-1.17584 0.20106,-2.21351 0.60282,-3.11302 0.40213,-0.899147 0.94205,-1.65577 1.6205,-2.26987 0.67809,-0.613733 1.46089,-1.07658 2.34876,-1.38781 0.88751,-0.311229 1.82556,-0.466844 2.81379,-0.466844 0.70318,0 1.41508,0.09926 2.13534,0.29814 0.7199,0.198881 1.33145,0.540652 1.83393,1.02458 l 0,-0.778073 3.84346,0 z m -3.84346,10.9214 0,-8.48282 c -0.40213,-0.432303 -0.88788,-0.739533 -1.45725,-0.920963 -0.56937,-0.181429 -1.14711,-0.272326 -1.73321,-0.272326 -0.72026,0 -1.38199,0.138163 -1.98481,0.414851 -0.60282,0.277052 -1.12639,0.657363 -1.56996,1.14166 -0.44394,0.484296 -0.78716,1.0464 -1.03004,1.68631 -0.24287,0.639911 -0.36431,1.33145 -0.36431,2.07498 0,0.760985 0.11707,1.48307 0.35158,2.16624 0.23452,0.683178 0.56538,1.28418 0.99259,1.80302 0.42685,0.518837 0.94605,0.929325 1.55724,1.23219 0.61155,0.302503 1.294,0.453755 2.04771,0.453755 0.5861,0 1.16384,-0.111984 1.73321,-0.337044 0.56938,-0.224696 1.05513,-0.544651 1.45725,-0.959866 z"
       id="path3063"
       style="fill:#990000;fill-rule:nonzero" /><path
       d="m 43.6634,58.9383 -4.53973,0 0.907873,-1.63432 0,-15.7985 -1.24528,-1.45289 3.96926,0 0,17.2514 0.907873,1.63432 z m 8.89803,-13.4378 -1.6085,0.985681 -4.77315,4.28049 4.53973,6.53727 1.71213,1.63432 -4.85096,0 0.2596,-1.19329 -4.64372,-6.58926 4.92877,-4.61754 -0.492659,-1.03767 4.92877,0 z m 13.5934,6.7187 c 0,-0.778073 -0.125073,-1.49579 -0.375948,-2.15315 -0.250874,-0.656999 -0.588282,-1.22783 -1.01186,-1.71213 -0.423577,-0.483933 -0.924962,-0.864607 -1.50452,-1.1413 -0.579192,-0.276689 -1.19765,-0.414851 -1.85465,-0.414851 -0.657363,0 -1.27546,0.138163 -1.85501,0.414851 -0.579556,0.276689 -1.0853,0.657363 -1.51761,1.1413 -0.432303,0.484296 -0.769711,1.05513 -1.01186,1.71213 -0.242148,0.657363 -0.363222,1.37508 -0.363222,2.15315 0,0.778437 0.121074,1.49616 0.363222,2.15315 0.242148,0.657363 0.579556,1.22819 1.01186,1.71249 0.432303,0.483933 0.938051,0.864607 1.51761,1.1413 0.579556,0.276689 1.19765,0.415215 1.85501,0.415215 0.656999,0 1.27546,-0.138526 1.85465,-0.415215 0.579556,-0.276689 1.08094,-0.657363 1.50452,-1.1413 0.423577,-0.484296 0.760985,-1.05513 1.01186,-1.71249 0.250874,-0.656999 0.375948,-1.37472 0.375948,-2.15315 z m 3.1392,0 c 0,0.986044 -0.220697,1.91973 -0.661726,2.80179 -0.441029,0.882059 -1.02458,1.65613 -1.75103,2.32186 -0.726444,0.666089 -1.56524,1.18893 -2.51638,1.5696 -0.95114,0.380311 -1.93682,0.570466 -2.95704,0.570466 -1.02059,0 -2.00627,-0.194518 -2.95777,-0.583555 -0.95114,-0.389037 -1.78993,-0.9166 -2.51601,-1.58232 -0.726444,-0.666089 -1.31036,-1.43544 -1.75103,-2.30877 -0.441393,-0.873696 -0.661726,-1.80302 -0.661726,-2.78907 0,-0.985681 0.220333,-1.91537 0.661726,-2.7887 0.440666,-0.873333 1.02458,-1.64304 1.75103,-2.30877 0.726081,-0.665725 1.56487,-1.19329 2.51601,-1.58232 0.951504,-0.389037 1.93718,-0.583555 2.95777,-0.583555 1.02022,0 2.0059,0.194518 2.95704,0.583555 0.95114,0.389037 1.78993,0.9166 2.51638,1.58232 0.726444,0.665725 1.31,1.43544 1.75103,2.30877 0.441029,0.873333 0.661726,1.80302 0.661726,2.7887 z m 16.6806,-1.11548 c 0,0.674815 -0.0909,1.33181 -0.272326,1.97173 -0.181793,0.639911 -0.423941,1.24528 -0.726444,1.81575 -0.302867,0.57083 -0.657363,1.09839 -1.06349,1.58269 -0.406489,0.484296 -0.826067,0.907873 -1.25837,1.2711 l 1.3489,1.19329 -4.92877,0 c 0.466844,-0.34577 0.929325,-0.804252 1.38781,-1.37508 0.458118,-0.570466 0.860244,-1.18456 1.20638,-1.84156 0.34577,-0.657363 0.626822,-1.33181 0.843155,-2.02335 0.21597,-0.691904 0.323955,-1.34054 0.323955,-1.94591 0,-0.726081 -0.07781,-1.4009 -0.233422,-2.02335 -0.155615,-0.622459 -0.406489,-1.16311 -0.752259,-1.62123 -0.34577,-0.458482 -0.786799,-0.817341 -1.32309,-1.07694 -0.535925,-0.259237 -1.17584,-0.389037 -1.91973,-0.389037 -0.830066,0 -1.56924,0.134163 -2.21787,0.402126 -0.648637,0.268326 -1.19765,0.609733 -1.64741,1.02495 l 0,9.23508 0.908237,1.63432 -4.54009,0 0.907873,-1.63432 0,-10.3506 -1.24492,-1.45289 3.9689,0 0,1.06349 c 0.501748,-0.449756 1.12421,-0.834429 1.86774,-1.15438 0.743896,-0.319955 1.6085,-0.479933 2.59455,-0.479933 1.00277,0 1.91937,0.142889 2.74944,0.42794 0.83043,0.285415 1.54378,0.691904 2.14043,1.21947 0.596644,0.527563 1.05949,1.17584 1.38781,1.94555 0.328681,0.769711 0.493022,1.62995 0.493022,2.58109 z m 13.36,3.24282 c 0.08653,0.95114 -0.04327,1.75539 -0.389037,2.41275 -0.34577,0.656999 -0.808615,1.18893 -1.38781,1.59541 -0.579556,0.406489 -1.22819,0.695903 -1.94591,0.86897 -0.717718,0.173067 -1.39653,0.250874 -2.03644,0.233422 -1.05476,-0.01709 -1.97572,-0.1298 -2.76289,-0.337408 -0.786799,-0.207244 -1.4049,-0.458118 -1.85465,-0.751895 l -1.11548,1.06349 0,-4.82515 c 0.294141,0.535925 0.653,1.00313 1.07658,1.4009 0.423941,0.397763 0.86897,0.726081 1.33618,0.985681 0.466844,0.259237 0.946777,0.449392 1.43944,0.570466 0.493022,0.121074 0.955867,0.181793 1.38817,0.181793 0.501385,0 0.972592,-0.06072 1.41362,-0.181793 0.441029,-0.121074 0.817341,-0.306866 1.12857,-0.557377 0.311229,-0.250874 0.540652,-0.575193 0.687541,-0.972955 0.146889,-0.397763 0.177066,-0.882059 0.09053,-1.45289 -0.08617,-0.518837 -0.319592,-0.933688 -0.700266,-1.24492 -0.380311,-0.311593 -0.847518,-0.57083 -1.4009,-0.778437 -0.553377,-0.207607 -1.14566,-0.3934 -1.77684,-0.55774 -0.631185,-0.164341 -1.23655,-0.354496 -1.81611,-0.57083 -0.579192,-0.21597 -1.09803,-0.488296 -1.55651,-0.816977 -0.458118,-0.328681 -0.77371,-0.760985 -0.946777,-1.29727 -0.155615,-0.483933 -0.185792,-0.985681 -0.0909,-1.50452 0.09526,-0.518837 0.315592,-0.990044 0.661362,-1.41398 0.346134,-0.423577 0.826067,-0.769347 1.44016,-1.03767 0.613733,-0.267963 1.36199,-0.401762 2.24369,-0.401762 0.795889,0 1.45725,0.103622 1.98481,0.311229 0.527199,0.207607 0.99877,0.423577 1.41362,0.648637 l 1.1413,-0.908237 0,4.07289 c -0.207244,-0.363222 -0.488296,-0.683178 -0.842792,-0.959866 -0.354496,-0.276689 -0.73517,-0.514474 -1.14166,-0.713355 -0.406489,-0.198881 -0.808615,-0.34577 -1.20601,-0.441029 -0.397763,-0.0949 -0.743896,-0.142526 -1.03767,-0.142526 -0.778437,0 -1.32745,0.142526 -1.64741,0.42794 -0.319955,0.285415 -0.479933,0.601007 -0.479933,0.946777 0,0.380674 0.173067,0.696267 0.518837,0.947141 0.34577,0.250511 0.812978,0.453755 1.4009,0.60937 0.639911,0.173067 1.34018,0.367585 2.10116,0.583919 0.760985,0.21597 1.47434,0.492659 2.14043,0.830066 0.665725,0.337408 1.23619,0.756622 1.71176,1.25801 0.475934,0.501748 0.748259,1.14166 0.817341,1.91973 z m 8.09378,3.52824 c -0.44939,0.535925 -0.92096,0.920963 -1.41362,1.15438 -0.49302,0.233422 -0.98168,0.350133 -1.46561,0.350133 -0.7439,0 -1.37944,-0.21197 -1.90701,-0.635548 -0.5272,-0.423577 -0.79116,-1.03331 -0.79116,-1.82884 l 0,-9.83208 -0.85588,0 -0.98605,1.03767 0,-2.62 1.89392,0 0,-3.99508 -1.24528,-1.45289 3.86528,0 0,5.44797 1.89355,0 0,2.62 -0.98568,-1.03767 -0.85588,0 0,9.28743 c 0,0.397763 0.0691,0.73917 0.20761,1.02458 0.13816,0.285415 0.33268,0.501385 0.58355,0.648637 0.25088,0.146889 0.55338,0.211607 0.90788,0.194155 0.35449,-0.01709 0.73953,-0.138163 1.15438,-0.362859 z"
       id="path3065"
       style="fill:#990000;fill-rule:nonzero" /><polygon
       points="22.3467,45.5064 14.7074,48.0569 14.7074,55.8475 22.1213,53.3671 "
       id="polygon3067"
       style="fill:#666666" /><polygon
       points="14.7234,55.8399 7.30953,53.3595 7.0841,45.4987 14.7234,48.0493 "
       id="polygon3069"
       style="fill:#006699" /><polygon
       points="25.976,45.4119 26.0796,42.3516 14.7234,45.8118 3.35117,42.3439 3.45479,45.4042 14.7074,48.8445 "
       id="polygon3071"
       style="fill:#006699" /><polygon
       points="25.3612,54.0612 14.7074,57.6556 14.7074,61.3714 26.0371,57.3135 "
       id="polygon3073"
       style="fill:#666666" /><polygon
       points="14.7234,61.3638 3.39335,57.3058 4.06961,54.0536 14.7234,57.648 "
       id="polygon3075"
       style="fill:#006699" /><path
       d="M 5.92826,8.24794 3.99398,10.66688 C 4.901126,10.080416 5.86608,9.669928 6.87976,9.40451 L 3.88745,14.14494 6.09478,13.11018 C 5.997703,13.509761 5.118916,16.71586 5.0142,16.28937 5.000747,16.2341 4.953118,16.439894 4.912032,16.509703 l -3.15592,0.699539 c -0.00654,1.05331 0.26469,2.0768 -0.127255,2.93014 l -1.62777,3.54714 c -0.0152706,0.349406 0.198154,0.824976 0.794798,1.92664 0.376675,0.306139 0.376311,0.313411 0.428304,0.401035 0.055265,-0.04108 0.133072,-0.115257 0.979863,0.146889 0.771529,0.238876 0.779164,0.969683 1.44198,-0.05926 1.58305,-2.45566 -0.075626,-2.43966 -0.717718,-2.77052 l -0.587918,-0.30069 c -0.082898,-2.53528 0.811887,-4.28704 1.59905,-4.35612 1.42489,-0.12471 3.12211,3.261 0.917327,8.24103 -0.82534,1.86483 -1.06312,2.24987 -0.973682,2.78688 0.082534,0.493749 0.442847,1.11657 0.877332,3.139931 0.35486,1.65213 0.467571,1.41653 2.2506,2.37494 0.513019,0.275598 1.0744,0.831157 1.931,1.33618 0.959866,-1.08639 0.650091,-2.06008 0.421396,-3.7482 l -1.05476,-0.186883 c -0.085443,-0.01527 -0.202154,-0.03091 -0.287596,-0.04472 -0.369403,-0.0589 -0.821704,0.269052 -1.13766,0.07744 -1.34418,-0.815159 -1.92519,-2.17642 -1.55142,-3.49951 0.834793,-2.95777 2.13461,-3.50897 2.98831,-3.6893 l 7.47787,2.47202 c -0.315229,5.12947 0.247238,5.86318 -2.4982,7.41133 -1.98081,2.42184 -2.52038,1.61687 -2.98358,2.63527 -1.08821,0 -1.47325,2.22005 -1.68631,3.11157 1.17911,0.285415 2.37567,0.446847 3.64277,0.117802 0.437394,-0.852608 0.09599,-0.248329 0.422123,-1.1133 l 0.05417,-1.5416 c 0.05163,-1.05803 -0.261782,-0.3894 0.335226,-1.11185 0.759894,-0.919872 -0.346134,-0.269781 0.932597,-0.502475 1.40453,-1.58523 1.25801,-0.431576 5.02475,-4.80369 1.59396,0.558831 3.23591,2.82179 1.96445,5.1731 -0.474479,1.08894 -1.43035,1.50888 -2.09316,2.17897 -3.06357,0.57701 -1.98118,2.33495 -2.77561,3.49515 0.780255,0.414124 2.58473,0.423577 3.54351,0.04509 l 0.130891,-0.958048 c -0.03563,-0.365404 -0.02291,-0.605734 -0.02291,-0.81116 l 0.46139,0.265418 c 0.23524,-1.28891 0.212698,-1.38526 1.18602,-2.26005 0.887876,-1.50634 2.36113,-2.73925 3.19301,-3.18392 0.220697,-3.28936 -3.1352,-0.760621 2.16843,-9.86553 1.4638,2.47893 -3.29736,8.56862 3.28427,8.40319 -0.661726,-0.949322 -0.961684,-0.953322 -1.0075,-2.65272 l 0.510474,0.284688 c -0.01636,-1.09076 0.167249,-0.878059 0.735897,-0.297777 0.161432,-1.15257 0.505384,-1.2071 0.964593,-2.01281 1.15802,-2.03099 2.4273,-5.18146 1.17947,-6.43547 -2.65781,-2.66981 -6.90849,0.384674 -6.93103,0.392309 -2.85306,-2.86869 -7.98834,-7.26153 -10.4116,-10.5044 l -0.06908,-4.4135701 3.07739,4.4771901 c 0.843155,1.13911 2.91559,0.1338 2.8796,-1.09258 L 20.771709,4.1986579 c 0.385764,-0.299231 1.24564,0.379947 1.3729,0.669725 0.02036,-2.26078 -0.599189,-1.74703 -1.05803,-2.22987 0.22506,-0.379583 0.441029,-0.498112 0.79298,-0.276689 0.05926,-0.182156 -0.38431,-0.709719 -1.59432,-0.649364 -0.127982,-0.538107 -0.189792,-1.1253 -0.531199,-1.71249 -0.391582,0.357405 -0.806069,0.758076 -1.0744,1.79611 l -1.25837,0.070536 c -0.664271,-0.224332 -1.25073,-1.15548 -2.2426,-1.7743 -0.03854,0.730444 -0.164341,1.32927 0.23524,2.05971 -0.01018,-0.055629 -2.69344,-0.174158 -2.99885,-0.219606 l -2.36185,0.8457 c 1.14929,0.43703 1.59541,0.87406 1.67468,1.31109 l -3.8867299,0.405398 -2.34985,1.7034 c 1.23728,-0.019634 1.8452,0.133072 2.47275,0.631185 l -2.03572,1.41871 z"
       id="path3077"
       style="fill:#006699" /><path
       d="m 126.834,55.5548 c 0,1.13475 -0.45812,2.04953 -1.37763,2.74398 -0.91624,0.694449 -2.17352,1.04167 -3.77147,1.04167 -0.88351,0 -1.68231,-0.0938 -2.39967,-0.27378 -0.72063,-0.183611 -1.29655,-0.383946 -1.73358,-0.607552 l 0,-2.89451 0.29232,0 c 0.15998,0.123619 0.34396,0.260327 0.55156,0.407216 0.20834,0.143616 0.50684,0.303958 0.8897,0.474116 0.32868,0.150161 0.70208,0.277052 1.12166,0.383946 0.41594,0.110166 0.86497,0.163614 1.34127,0.163614 0.62391,0 1.0853,-0.07672 1.38672,-0.230513 0.2985,-0.153433 0.44939,-0.380311 0.44939,-0.680996 0,-0.266872 -0.0876,-0.460663 -0.26542,-0.580646 -0.17488,-0.120347 -0.51266,-0.237058 -1.00713,-0.347224 -0.23488,-0.06036 -0.55447,-0.123619 -0.9555,-0.190519 -0.40395,-0.06981 -0.77189,-0.153433 -1.10057,-0.250147 -0.90133,-0.260327 -1.57033,-0.667907 -2.00445,-1.21874 -0.4374,-0.550832 -0.65446,-1.2351 -0.65446,-2.05608 0,-1.0584 0.4523,-1.93646 1.3569,-2.63745 0.90133,-0.700993 2.13752,-1.05149 3.70494,-1.05149 0.74172,0 1.45325,0.08326 2.1317,0.250147 0.68136,0.166886 1.21183,0.343952 1.59469,0.534107 l 0,2.77779 -0.2745,0 c -0.47012,-0.360677 -1.00677,-0.651182 -1.60996,-0.878059 -0.60574,-0.223605 -1.21474,-0.337408 -1.83284,-0.337408 -0.5123,0 -0.94351,0.08035 -1.29618,0.237058 -0.34977,0.153797 -0.52466,0.377402 -0.52466,0.664635 0,0.260327 0.0785,0.457027 0.23779,0.597371 0.15997,0.137072 0.5341,0.27378 1.12166,0.410488 0.32577,0.07017 0.67263,0.140344 1.0464,0.210516 0.37376,0.06654 0.75044,0.153433 1.12748,0.257055 0.83479,0.24033 1.45325,0.621004 1.85392,1.13839 0.40103,0.520655 0.59991,1.1682 0.59991,1.943 z m 11.8813,-1.35872 -7.27717,0 c 0.0476,0.860971 0.34322,1.5187 0.88897,1.97609 0.54283,0.454119 1.34454,0.684268 2.40585,0.684268 0.67227,0 1.32054,-0.133436 1.95064,-0.400308 0.63009,-0.270508 1.12748,-0.554468 1.49543,-0.861335 l 0.35267,0 0,2.82397 c -0.72062,0.320683 -1.39581,0.550832 -2.03208,0.694449 -0.63627,0.143616 -1.33836,0.217061 -2.11061,0.217061 -1.98954,0 -3.51478,-0.497385 -4.57609,-1.48561 -1.05803,-0.991498 -1.58887,-2.40367 -1.58887,-4.23614 0,-1.81284 0.5003,-3.24827 1.50452,-4.30994 1.00386,-1.0584 2.3815,-1.58887 4.12998,-1.58887 1.61322,0 2.82506,0.453755 3.63912,1.35508 0.81407,0.904965 1.21765,2.20333 1.21765,3.89946 l 0,1.23183 z m -3.1621,-2.06335 c -0.0153,-0.737715 -0.18107,-1.29182 -0.49448,-1.66231 -0.31086,-0.37413 -0.79589,-0.557377 -1.45616,-0.557377 -0.61228,0 -1.11548,0.17343 -1.5107,0.527199 -0.39485,0.350497 -0.61482,0.914782 -0.66318,1.69249 l 4.12452,0 z"
       id="path3079"
       style="fill:#666666;fill-rule:nonzero" /><circle
       cx="113.448"
       cy="57.5574"
       r="1.94409"
       id="circle3081"
       style="fill:#666666" /></g></svg>