<?xml version="1.0" encoding="UTF-8" standalone="no"?>
<!-- Created with Inkscape (http://www.inkscape.org/) -->

<svg
   xmlns:dc="http://purl.org/dc/elements/1.1/"
   xmlns:cc="http://creativecommons.org/ns#"
   xmlns:rdf="http://www.w3.org/1999/02/22-rdf-syntax-ns#"
   xmlns:svg="http://www.w3.org/2000/svg"
   xmlns="http://www.w3.org/2000/svg"
   version="1.1"
   width="100%"
   height="100%"
   viewBox="0 0 48 48"
   id="Layer_1"
   xml:space="preserve"><metadata
     id="metadata4089"><rdf:RDF><cc:Work
         rdf:about=""><dc:format>image/svg+xml</dc:format><dc:type
           rdf:resource="http://purl.org/dc/dcmitype/StillImage" /><dc:title></dc:title></cc:Work></rdf:RDF></metadata><defs
     id="defs4087" /><path
     d="M 34.235544,29.928873 C 38.81061,23.019636 37.783554,14.056301 31.901326,8.0807438 28.540053,4.7194933 24.245093,2.9455 19.576658,2.9455 14.908223,2.9455 10.519894,4.8128614 7.1586207,8.0807438 0.24933688,14.989982 0.34270558,26.007413 7.065252,32.823283 c 3.361273,3.36125 7.656233,5.135244 12.418037,5.135244 3.454642,0 6.722547,-0.933681 9.523608,-2.707675 l 8.403183,8.403126 c 1.867374,1.867363 4.761803,1.867363 6.629177,0 L 46,41.69325 z M 12.387268,27.501302 C 8.6525199,23.76658 8.4657825,17.697656 12.013793,13.682829 c 0.09337,-0.186737 0.280106,-0.280104 0.373475,-0.373473 1.960743,-1.867361 4.388329,-2.987778 7.096021,-2.987778 2.707692,0 5.228647,1.027048 7.096021,2.987778 3.921486,3.921459 3.921486,10.270488 0,14.191946 -1.867374,1.867362 -4.388329,2.987779 -7.096021,2.987779 -2.707692,0 -5.135278,-1.120417 -7.096021,-2.987779 z"
     id="path4083"
     style="fill:#969696" /></svg>